<svg width="50" height="51" viewBox="0 0 50 51" fill="none" xmlns="http://www.w3.org/2000/svg">
<path d="M14.7508 47.3232C12.5417 47.3232 10.7508 45.5324 10.7508 43.3232L10.7508 6.82528C10.7508 4.61614 12.5417 2.82527 14.7508 2.82527H17.5016C19.7108 2.82527 21.5016 4.61614 21.5016 6.82527L21.5016 43.3232C21.5016 45.5323 19.7108 47.3232 17.5016 47.3232H14.7508Z" fill="#6536B1"/>
<path d="M11.4571 1.41263C11.067 1.41263 10.7508 1.0964 10.7508 0.706312V0.706312C10.7508 0.316224 11.067 -4.89211e-06 11.4571 -4.89211e-06L20.7953 -4.89211e-06C21.1854 -4.89211e-06 21.5016 0.316224 21.5016 0.706312V0.706312C21.5016 1.0964 21.1854 1.41263 20.7953 1.41263L11.4571 1.41263Z" fill="#6536B1"/>
<path d="M30.3963 17.0514C33.499 14.7377 38.6911 14.8358 41.5236 17.2616V17.2616C44.876 20.1326 43.0743 24.5547 38.059 25.7653L26.0377 28.6672C25.1476 28.882 24.449 29.3866 24.1583 30.0246V30.0246C23.1241 32.2941 18.4521 31.8103 18.4521 29.4336L18.4521 26.965C18.4521 26.3194 18.8044 25.6956 19.4341 25.226L30.3963 17.0514Z" fill="#6536B1"/>
<path d="M17.9562 24.1935L43.7617 38.7617C47.0752 40.6322 47.3615 44.1466 44.3741 46.2786V46.2786C41.8276 48.096 37.7728 48.2548 34.963 46.6472L26.1285 41.5928C25.5732 41.2751 25.0604 40.9213 24.5966 40.536L13.1216 31.0021C12.7247 30.6724 12.4084 30.2974 12.1857 29.8929L11.2211 28.1402C9.59735 25.1899 14.2174 22.4826 17.9562 24.1935V24.1935Z" fill="#6536B1"/>
</svg>
