<svg width="66" height="67" viewBox="0 0 66 67" fill="none" xmlns="http://www.w3.org/2000/svg">
<path d="M0 35C0 17.3269 14.3269 3 32 3H34C51.6731 3 66 17.3269 66 35V35V35C66 52.6731 51.6731 67 34 67H32C14.3269 67 0 52.6731 0 35V35Z" fill="white"/>
<path d="M36 34H66V64H36V34Z" fill="white"/>
<path d="M0 0H30V30H0V0Z" fill="white"/>
<path d="M21.7508 55.3232C19.5417 55.3232 17.7508 53.5324 17.7508 51.3232L17.7508 14.8253C17.7508 12.6161 19.5417 10.8253 21.7508 10.8253H24.5016C26.7108 10.8253 28.5016 12.6161 28.5016 14.8253L28.5016 51.3232C28.5016 53.5323 26.7108 55.3232 24.5016 55.3232H21.7508Z" fill="#6536B1"/>
<path d="M18.4571 9.4126C18.067 9.4126 17.7508 9.09637 17.7508 8.70628V8.70628C17.7508 8.31619 18.067 7.99996 18.4571 7.99996L27.7953 7.99996C28.1854 7.99996 28.5016 8.31619 28.5016 8.70628V8.70628C28.5016 9.09637 28.1854 9.4126 27.7953 9.4126L18.4571 9.4126Z" fill="#6536B1"/>
<path d="M37.3963 25.0514C40.499 22.7377 45.6911 22.8358 48.5236 25.2616V25.2616C51.876 28.1326 50.0743 32.5547 45.059 33.7653L33.0377 36.6672C32.1476 36.882 31.449 37.3866 31.1583 38.0246V38.0246C30.1241 40.2941 25.4521 39.8103 25.4521 37.4336L25.4521 34.965C25.4521 34.3194 25.8044 33.6956 26.4341 33.226L37.3963 25.0514Z" fill="#6536B1"/>
<path d="M24.9562 32.1935L50.7617 46.7617C54.0752 48.6322 54.3615 52.1466 51.3741 54.2786V54.2786C48.8276 56.096 44.7729 56.2548 41.963 54.6472L33.1285 49.5928C32.5732 49.2751 32.0604 48.9213 31.5966 48.536L20.1216 39.0021C19.7248 38.6724 19.4084 38.2974 19.1857 37.8929L18.2211 36.1402C16.5974 33.1899 21.2174 30.4826 24.9562 32.1935V32.1935Z" fill="#6536B1"/>
</svg>
