<svg width="66" height="64" viewBox="0 0 66 64" fill="none" xmlns="http://www.w3.org/2000/svg">
<path d="M0 32C0 14.3269 14.3269 0 32 0H34C51.6731 0 66 14.3269 66 32V32V32C66 49.6731 51.6731 64 34 64H32C14.3269 64 0 49.6731 0 32V32Z" fill="white"/>
<path d="M36 34H66V64H36V34Z" fill="white"/>
<path d="M0 0H30V30H0V0Z" fill="white"/>
<path d="M21.7508 52.3232C19.5417 52.3232 17.7508 50.5324 17.7508 48.3232L17.7508 11.8253C17.7508 9.61614 19.5417 7.82527 21.7508 7.82527H24.5016C26.7108 7.82527 28.5016 9.61614 28.5016 11.8253L28.5016 48.3232C28.5016 50.5323 26.7108 52.3232 24.5016 52.3232H21.7508Z" fill="#6536B1"/>
<path d="M18.4571 6.4126C18.067 6.4126 17.7508 6.09637 17.7508 5.70628V5.70628C17.7508 5.31619 18.067 4.99996 18.4571 4.99996L27.7953 4.99996C28.1854 4.99996 28.5016 5.31619 28.5016 5.70628V5.70628C28.5016 6.09637 28.1854 6.4126 27.7953 6.4126L18.4571 6.4126Z" fill="#6536B1"/>
<path d="M37.3963 22.0514C40.499 19.7377 45.6911 19.8358 48.5236 22.2616V22.2616C51.876 25.1326 50.0743 29.5547 45.059 30.7653L33.0377 33.6672C32.1476 33.882 31.449 34.3866 31.1583 35.0246V35.0246C30.1241 37.2941 25.4521 36.8103 25.4521 34.4336L25.4521 31.965C25.4521 31.3194 25.8044 30.6956 26.4341 30.226L37.3963 22.0514Z" fill="#6536B1"/>
<path d="M24.9562 29.1935L50.7617 43.7617C54.0752 45.6322 54.3615 49.1466 51.3741 51.2786V51.2786C48.8276 53.096 44.7729 53.2548 41.963 51.6472L33.1285 46.5928C32.5732 46.2751 32.0604 45.9213 31.5966 45.536L20.1216 36.0021C19.7248 35.6724 19.4084 35.2974 19.1857 34.8929L18.2211 33.1402C16.5974 30.1899 21.2174 27.4826 24.9562 29.1935V29.1935Z" fill="#6536B1"/>
</svg>
